<mxfile host="Electron" agent="Mozilla/5.0 (Windows NT 10.0; Win64; x64) AppleWebKit/537.36 (KHTML, like Gecko) draw.io/24.7.8 Chrome/128.0.6613.36 Electron/32.0.1 Safari/537.36" version="24.7.8">
  <diagram name="Sayfa -1" id="7cwgfiadtOmUJpBRuxYB">
    <mxGraphModel dx="1219" dy="713" grid="1" gridSize="10" guides="1" tooltips="1" connect="1" arrows="1" fold="1" page="1" pageScale="1" pageWidth="827" pageHeight="1169" math="0" shadow="0">
      <root>
        <mxCell id="0" />
        <mxCell id="1" parent="0" />
        <mxCell id="xvPq2H1v9KTHg_nWbJv2-3" value="" style="edgeStyle=orthogonalEdgeStyle;rounded=0;orthogonalLoop=1;jettySize=auto;html=1;" edge="1" parent="1" source="xvPq2H1v9KTHg_nWbJv2-1" target="xvPq2H1v9KTHg_nWbJv2-2">
          <mxGeometry relative="1" as="geometry" />
        </mxCell>
        <mxCell id="xvPq2H1v9KTHg_nWbJv2-1" value="başla" style="ellipse;whiteSpace=wrap;html=1;" vertex="1" parent="1">
          <mxGeometry x="310" y="10" width="100" height="60" as="geometry" />
        </mxCell>
        <mxCell id="xvPq2H1v9KTHg_nWbJv2-5" value="" style="edgeStyle=orthogonalEdgeStyle;rounded=0;orthogonalLoop=1;jettySize=auto;html=1;" edge="1" parent="1" source="xvPq2H1v9KTHg_nWbJv2-2" target="xvPq2H1v9KTHg_nWbJv2-4">
          <mxGeometry relative="1" as="geometry" />
        </mxCell>
        <mxCell id="xvPq2H1v9KTHg_nWbJv2-2" value="ana menü&amp;nbsp; görüntüle" style="whiteSpace=wrap;html=1;" vertex="1" parent="1">
          <mxGeometry x="300" y="120" width="120" height="60" as="geometry" />
        </mxCell>
        <mxCell id="xvPq2H1v9KTHg_nWbJv2-9" value="" style="edgeStyle=orthogonalEdgeStyle;rounded=0;orthogonalLoop=1;jettySize=auto;html=1;" edge="1" parent="1" source="xvPq2H1v9KTHg_nWbJv2-4" target="xvPq2H1v9KTHg_nWbJv2-8">
          <mxGeometry relative="1" as="geometry" />
        </mxCell>
        <mxCell id="xvPq2H1v9KTHg_nWbJv2-4" value="kullanıcı seçimi" style="shape=parallelogram;perimeter=parallelogramPerimeter;whiteSpace=wrap;html=1;fixedSize=1;" vertex="1" parent="1">
          <mxGeometry x="300" y="220" width="120" height="60" as="geometry" />
        </mxCell>
        <mxCell id="xvPq2H1v9KTHg_nWbJv2-11" value="2" style="edgeStyle=orthogonalEdgeStyle;rounded=0;orthogonalLoop=1;jettySize=auto;html=1;" edge="1" parent="1" source="xvPq2H1v9KTHg_nWbJv2-8" target="xvPq2H1v9KTHg_nWbJv2-10">
          <mxGeometry relative="1" as="geometry" />
        </mxCell>
        <mxCell id="xvPq2H1v9KTHg_nWbJv2-13" value="" style="edgeStyle=orthogonalEdgeStyle;rounded=0;orthogonalLoop=1;jettySize=auto;html=1;" edge="1" parent="1" source="xvPq2H1v9KTHg_nWbJv2-8" target="xvPq2H1v9KTHg_nWbJv2-12">
          <mxGeometry relative="1" as="geometry" />
        </mxCell>
        <mxCell id="xvPq2H1v9KTHg_nWbJv2-14" value="3" style="edgeStyle=orthogonalEdgeStyle;rounded=0;orthogonalLoop=1;jettySize=auto;html=1;" edge="1" parent="1" source="xvPq2H1v9KTHg_nWbJv2-8" target="xvPq2H1v9KTHg_nWbJv2-12">
          <mxGeometry relative="1" as="geometry" />
        </mxCell>
        <mxCell id="xvPq2H1v9KTHg_nWbJv2-16" value="" style="edgeStyle=orthogonalEdgeStyle;rounded=0;orthogonalLoop=1;jettySize=auto;html=1;" edge="1" parent="1" source="xvPq2H1v9KTHg_nWbJv2-8" target="xvPq2H1v9KTHg_nWbJv2-15">
          <mxGeometry relative="1" as="geometry" />
        </mxCell>
        <mxCell id="xvPq2H1v9KTHg_nWbJv2-20" value="5" style="edgeStyle=orthogonalEdgeStyle;rounded=0;orthogonalLoop=1;jettySize=auto;html=1;" edge="1" parent="1" source="xvPq2H1v9KTHg_nWbJv2-8" target="xvPq2H1v9KTHg_nWbJv2-19">
          <mxGeometry relative="1" as="geometry" />
        </mxCell>
        <mxCell id="xvPq2H1v9KTHg_nWbJv2-23" value="" style="edgeStyle=orthogonalEdgeStyle;rounded=0;orthogonalLoop=1;jettySize=auto;html=1;" edge="1" parent="1" source="xvPq2H1v9KTHg_nWbJv2-8" target="xvPq2H1v9KTHg_nWbJv2-15">
          <mxGeometry relative="1" as="geometry" />
        </mxCell>
        <mxCell id="xvPq2H1v9KTHg_nWbJv2-24" value="4" style="edgeStyle=orthogonalEdgeStyle;rounded=0;orthogonalLoop=1;jettySize=auto;html=1;" edge="1" parent="1" source="xvPq2H1v9KTHg_nWbJv2-8" target="xvPq2H1v9KTHg_nWbJv2-15">
          <mxGeometry relative="1" as="geometry" />
        </mxCell>
        <mxCell id="xvPq2H1v9KTHg_nWbJv2-28" value="1" style="edgeStyle=orthogonalEdgeStyle;rounded=0;orthogonalLoop=1;jettySize=auto;html=1;" edge="1" parent="1" source="xvPq2H1v9KTHg_nWbJv2-8" target="xvPq2H1v9KTHg_nWbJv2-27">
          <mxGeometry relative="1" as="geometry" />
        </mxCell>
        <mxCell id="xvPq2H1v9KTHg_nWbJv2-44" value="6" style="edgeStyle=orthogonalEdgeStyle;rounded=0;orthogonalLoop=1;jettySize=auto;html=1;" edge="1" parent="1" source="xvPq2H1v9KTHg_nWbJv2-8" target="xvPq2H1v9KTHg_nWbJv2-43">
          <mxGeometry relative="1" as="geometry" />
        </mxCell>
        <mxCell id="xvPq2H1v9KTHg_nWbJv2-8" value="1.ürünekle&lt;div&gt;2.ürün listele&lt;/div&gt;&lt;div&gt;3.stok/fiyat güncelle&lt;/div&gt;&lt;div&gt;4.ürün satışı yap&lt;/div&gt;&lt;div&gt;5.gün sonu raporu&lt;/div&gt;&lt;div&gt;6.çıkış&lt;/div&gt;" style="rhombus;whiteSpace=wrap;html=1;" vertex="1" parent="1">
          <mxGeometry x="250" y="370" width="220" height="200" as="geometry" />
        </mxCell>
        <mxCell id="xvPq2H1v9KTHg_nWbJv2-35" value="devam" style="edgeStyle=orthogonalEdgeStyle;rounded=0;orthogonalLoop=1;jettySize=auto;html=1;entryX=0;entryY=0.75;entryDx=0;entryDy=0;" edge="1" parent="1" source="xvPq2H1v9KTHg_nWbJv2-10" target="xvPq2H1v9KTHg_nWbJv2-2">
          <mxGeometry relative="1" as="geometry">
            <Array as="points">
              <mxPoint x="180" y="165" />
            </Array>
          </mxGeometry>
        </mxCell>
        <mxCell id="xvPq2H1v9KTHg_nWbJv2-10" value="ürün listeleme" style="whiteSpace=wrap;html=1;" vertex="1" parent="1">
          <mxGeometry x="130" y="610" width="120" height="60" as="geometry" />
        </mxCell>
        <mxCell id="xvPq2H1v9KTHg_nWbJv2-36" value="devam" style="edgeStyle=orthogonalEdgeStyle;rounded=0;orthogonalLoop=1;jettySize=auto;html=1;entryX=0;entryY=0.75;entryDx=0;entryDy=0;" edge="1" parent="1" source="xvPq2H1v9KTHg_nWbJv2-12" target="xvPq2H1v9KTHg_nWbJv2-2">
          <mxGeometry relative="1" as="geometry">
            <Array as="points">
              <mxPoint x="270" y="165" />
            </Array>
          </mxGeometry>
        </mxCell>
        <mxCell id="xvPq2H1v9KTHg_nWbJv2-12" value="güncelleme" style="whiteSpace=wrap;html=1;" vertex="1" parent="1">
          <mxGeometry x="260" y="650" width="120" height="60" as="geometry" />
        </mxCell>
        <mxCell id="xvPq2H1v9KTHg_nWbJv2-38" value="" style="edgeStyle=orthogonalEdgeStyle;rounded=0;orthogonalLoop=1;jettySize=auto;html=1;" edge="1" parent="1" source="xvPq2H1v9KTHg_nWbJv2-15" target="xvPq2H1v9KTHg_nWbJv2-37">
          <mxGeometry relative="1" as="geometry" />
        </mxCell>
        <mxCell id="xvPq2H1v9KTHg_nWbJv2-15" value="satış işlemi" style="whiteSpace=wrap;html=1;" vertex="1" parent="1">
          <mxGeometry x="390" y="610" width="120" height="60" as="geometry" />
        </mxCell>
        <mxCell id="xvPq2H1v9KTHg_nWbJv2-42" value="devam" style="edgeStyle=orthogonalEdgeStyle;rounded=0;orthogonalLoop=1;jettySize=auto;html=1;entryX=0;entryY=0.5;entryDx=0;entryDy=0;" edge="1" parent="1" source="xvPq2H1v9KTHg_nWbJv2-19" target="xvPq2H1v9KTHg_nWbJv2-2">
          <mxGeometry relative="1" as="geometry">
            <mxPoint x="569.9999999999998" y="130" as="targetPoint" />
            <Array as="points">
              <mxPoint x="600" y="150" />
            </Array>
          </mxGeometry>
        </mxCell>
        <mxCell id="xvPq2H1v9KTHg_nWbJv2-19" value="rapor göster" style="whiteSpace=wrap;html=1;" vertex="1" parent="1">
          <mxGeometry x="520" y="600" width="120" height="60" as="geometry" />
        </mxCell>
        <mxCell id="xvPq2H1v9KTHg_nWbJv2-31" value="" style="edgeStyle=orthogonalEdgeStyle;rounded=0;orthogonalLoop=1;jettySize=auto;html=1;" edge="1" parent="1" source="xvPq2H1v9KTHg_nWbJv2-27" target="xvPq2H1v9KTHg_nWbJv2-30">
          <mxGeometry relative="1" as="geometry" />
        </mxCell>
        <mxCell id="xvPq2H1v9KTHg_nWbJv2-27" value="ürün rekleme" style="whiteSpace=wrap;html=1;" vertex="1" parent="1">
          <mxGeometry y="600" width="120" height="60" as="geometry" />
        </mxCell>
        <mxCell id="xvPq2H1v9KTHg_nWbJv2-32" value="devam" style="edgeStyle=orthogonalEdgeStyle;rounded=0;orthogonalLoop=1;jettySize=auto;html=1;entryX=0;entryY=0.5;entryDx=0;entryDy=0;" edge="1" parent="1" source="xvPq2H1v9KTHg_nWbJv2-30" target="xvPq2H1v9KTHg_nWbJv2-2">
          <mxGeometry relative="1" as="geometry">
            <Array as="points">
              <mxPoint x="30" y="150" />
            </Array>
          </mxGeometry>
        </mxCell>
        <mxCell id="xvPq2H1v9KTHg_nWbJv2-30" value="kasa güncelle" style="whiteSpace=wrap;html=1;" vertex="1" parent="1">
          <mxGeometry y="710" width="120" height="60" as="geometry" />
        </mxCell>
        <mxCell id="xvPq2H1v9KTHg_nWbJv2-40" value="devam" style="edgeStyle=orthogonalEdgeStyle;rounded=0;orthogonalLoop=1;jettySize=auto;html=1;entryX=1;entryY=0.25;entryDx=0;entryDy=0;" edge="1" parent="1" source="xvPq2H1v9KTHg_nWbJv2-37" target="xvPq2H1v9KTHg_nWbJv2-2">
          <mxGeometry relative="1" as="geometry">
            <Array as="points">
              <mxPoint x="470" y="135" />
            </Array>
          </mxGeometry>
        </mxCell>
        <mxCell id="xvPq2H1v9KTHg_nWbJv2-37" value="kasa güncelle" style="whiteSpace=wrap;html=1;" vertex="1" parent="1">
          <mxGeometry x="390" y="710" width="120" height="60" as="geometry" />
        </mxCell>
        <mxCell id="xvPq2H1v9KTHg_nWbJv2-43" value="bitiş" style="ellipse;whiteSpace=wrap;html=1;" vertex="1" parent="1">
          <mxGeometry x="670" y="700" width="80" height="80" as="geometry" />
        </mxCell>
      </root>
    </mxGraphModel>
  </diagram>
</mxfile>
